<svg id="visual" viewBox="0 0 960 300" width="960" height="300" xmlns="http://www.w3.org/2000/svg" xmlns:xlink="http://www.w3.org/1999/xlink" version="1.1"><rect x="0" y="0" width="960" height="300" fill="#000"></rect><path d="M0 181L22.8 187.3C45.7 193.7 91.3 206.3 137 206C182.7 205.7 228.3 192.3 274 189.3C319.7 186.3 365.3 193.7 411.2 199C457 204.3 503 207.7 548.8 210.7C594.7 213.7 640.3 216.3 686 213C731.7 209.7 777.3 200.3 823 196C868.7 191.7 914.3 192.3 937.2 192.7L960 193L960 301L937.2 301C914.3 301 868.7 301 823 301C777.3 301 731.7 301 686 301C640.3 301 594.7 301 548.8 301C503 301 457 301 411.2 301C365.3 301 319.7 301 274 301C228.3 301 182.7 301 137 301C91.3 301 45.7 301 22.8 301L0 301Z" fill="#4f4e4e"></path><path d="M0 224L22.8 221.7C45.7 219.3 91.3 214.7 137 211.2C182.7 207.7 228.3 205.3 274 204.5C319.7 203.7 365.3 204.3 411.2 209.7C457 215 503 225 548.8 230.5C594.7 236 640.3 237 686 235.5C731.7 234 777.3 230 823 229.7C868.7 229.3 914.3 232.7 937.2 234.3L960 236L960 301L937.2 301C914.3 301 868.7 301 823 301C777.3 301 731.7 301 686 301C640.3 301 594.7 301 548.8 301C503 301 457 301 411.2 301C365.3 301 319.7 301 274 301C228.3 301 182.7 301 137 301C91.3 301 45.7 301 22.8 301L0 301Z" fill="#484747"></path><path d="M0 223L22.8 222.7C45.7 222.3 91.3 221.7 137 224.2C182.7 226.7 228.3 232.3 274 233.8C319.7 235.3 365.3 232.7 411.2 232.5C457 232.3 503 234.7 548.8 233.5C594.7 232.3 640.3 227.7 686 226.7C731.7 225.7 777.3 228.3 823 232.8C868.7 237.3 914.3 243.7 937.2 246.8L960 250L960 301L937.2 301C914.3 301 868.7 301 823 301C777.3 301 731.7 301 686 301C640.3 301 594.7 301 548.8 301C503 301 457 301 411.2 301C365.3 301 319.7 301 274 301C228.3 301 182.7 301 137 301C91.3 301 45.7 301 22.8 301L0 301Z" fill="#424040"></path><path d="M0 254L22.8 255.7C45.7 257.3 91.3 260.7 137 260C182.7 259.3 228.3 254.7 274 254C319.7 253.3 365.3 256.7 411.2 258C457 259.3 503 258.7 548.8 257C594.7 255.3 640.3 252.7 686 250.7C731.7 248.7 777.3 247.3 823 249.5C868.7 251.7 914.3 257.3 937.2 260.2L960 263L960 301L937.2 301C914.3 301 868.7 301 823 301C777.3 301 731.7 301 686 301C640.3 301 594.7 301 548.8 301C503 301 457 301 411.2 301C365.3 301 319.7 301 274 301C228.3 301 182.7 301 137 301C91.3 301 45.7 301 22.8 301L0 301Z" fill="#3b3939"></path><path d="M0 263L22.8 265C45.7 267 91.3 271 137 273.5C182.7 276 228.3 277 274 278C319.7 279 365.3 280 411.2 277.7C457 275.3 503 269.7 548.8 269C594.7 268.3 640.3 272.7 686 273.8C731.7 275 777.3 273 823 272.8C868.7 272.7 914.3 274.3 937.2 275.2L960 276L960 301L937.2 301C914.3 301 868.7 301 823 301C777.3 301 731.7 301 686 301C640.3 301 594.7 301 548.8 301C503 301 457 301 411.2 301C365.3 301 319.7 301 274 301C228.3 301 182.7 301 137 301C91.3 301 45.7 301 22.8 301L0 301Z" fill="#353333"></path></svg>