<svg id="visual" viewBox="0 0 900 600" width="900" height="600" xmlns="http://www.w3.org/2000/svg" xmlns:xlink="http://www.w3.org/1999/xlink" version="1.1"><rect x="0" y="0" width="900" height="600" fill="#10b981"></rect><path d="M0 325L30 328.2C60 331.3 120 337.7 180 340.2C240 342.7 300 341.3 360 323.7C420 306 480 272 540 259.3C600 246.7 660 255.3 720 260C780 264.7 840 265.3 870 265.7L900 266L900 601L870 601C840 601 780 601 720 601C660 601 600 601 540 601C480 601 420 601 360 601C300 601 240 601 180 601C120 601 60 601 30 601L0 601Z" fill="#6ee7b7" stroke-linecap="round" stroke-linejoin="miter"></path></svg>